<svg xmlns="http://www.w3.org/2000/svg" viewBox="0 0 32 32" width="32" height="32">
  <defs>
    <linearGradient id="springGradient" x1="0%" y1="0%" x2="100%" y2="100%">
      <stop offset="0%" style="stop-color:#6DB33F;stop-opacity:1" />
      <stop offset="100%" style="stop-color:#4A7C2A;stop-opacity:1" />
    </linearGradient>
  </defs>
  
  <!-- Background circle -->
  <circle cx="16" cy="16" r="15" fill="url(#springGradient)" stroke="#2E5A1A" stroke-width="1"/>
  
  <!-- Spring leaf design -->
  <g transform="translate(16,16)">
    <!-- Main leaf -->
    <path d="M-6,-8 Q-2,-10 2,-8 Q6,-6 8,-2 Q6,2 2,4 Q-2,6 -6,4 Q-8,0 -6,-4 Z" 
          fill="#FFFFFF" opacity="0.9"/>
    
    <!-- Leaf vein -->
    <path d="M-4,-6 Q0,-4 4,-2 Q2,0 0,2 Q-2,0 -4,-2" 
          fill="none" stroke="#6DB33F" stroke-width="1.5" opacity="0.7"/>
    
    <!-- Small accent leaf -->
    <path d="M2,-6 Q4,-4 6,-2 Q4,0 2,0 Q0,-2 2,-4 Z" 
          fill="#FFFFFF" opacity="0.6"/>
  </g>
  
  <!-- Subtle highlight -->
  <circle cx="12" cy="10" r="3" fill="#FFFFFF" opacity="0.2"/>
</svg>